<?xml version="1.0" encoding="utf-8"?>
<!-- Generator: Adobe Illustrator 15.1.0, SVG Export Plug-In . SVG Version: 6.00 Build 0)  -->
<!DOCTYPE svg PUBLIC "-//W3C//DTD SVG 1.1//EN" "http://www.w3.org/Graphics/SVG/1.1/DTD/svg11.dtd">
<svg version="1.1" id="Layer_1" xmlns="http://www.w3.org/2000/svg" xmlns:xlink="http://www.w3.org/1999/xlink" x="0px" y="0px"
	 width="1024px" height="1024px" viewBox="0 988 1024 1024" enable-background="new 0 988 1024 1024" xml:space="preserve">
<path d="M126.976,1459.04L512,1008.48c0,0-430.08,368.64-491.52,419.84v153.6C57.344,1538.912,126.976,1459.04,126.976,1459.04z"/>
<path d="M512,1850.208l141.312,141.312c0,0,225.28-262.144,350.208-409.6v-153.6c-4.096,4.096-34.815,30.72-34.815,30.72
	L512,1850.208z"/>
<path d="M1003.52,1428.32v153.6c8.192-8.192,14.336-16.384,20.48-24.576v-147.456
	C1019.904,1413.984,1005.568,1426.271,1003.52,1428.32z"/>
<path d="M20.48,1428.32c-2.048,2.048-18.432,16.384-20.48,18.432v159.744c8.192-10.24,12.288-16.384,20.48-24.576V1428.32z"/>
<g>
	<path d="M0,1446.752c2.048,0,18.432-14.336,20.48-18.432v-402.706v-17.134V988H0V1446.752z"/>
	<path d="M1003.52,988v20.48v12.634v407.206c2.049-2.049,16.385-14.336,20.48-18.433V988H1003.52z"/>
</g>
<g>
	<path d="M0,2012h20.48v-20.48v-149.172V1581.92c-8.192,8.192-12.288,14.336-20.48,24.576V2012z"/>
	<path d="M1024,1559.392c-6.145,8.192-12.288,16.385-20.48,24.576v380.6v26.952V2012H1024V1559.392z"/>
</g>
</svg>
