<?xml version="1.0" standalone="no"?>
<!DOCTYPE svg PUBLIC "-//W3C//DTD SVG 20010904//EN"
 "http://www.w3.org/TR/2001/REC-SVG-20010904/DTD/svg10.dtd">
<svg version="1.0" xmlns="http://www.w3.org/2000/svg"
 width="772.000000pt" height="772.000000pt" viewBox="0 0 772.000000 772.000000"
 preserveAspectRatio="xMidYMid meet">
<metadata>
Created by potrace 1.11, written by Peter Selinger 2001-2013
</metadata>
<g transform="translate(0.000000,772.000000) scale(0.100000,-0.100000)"
fill="#000000" stroke="none">
<path d="M3685 6279 c-16 -5 -82 -21 -145 -35 -130 -29 -129 -29 -190 -39 -90
-14 -185 -41 -521 -150 l-236 -76 -39 38 c-22 21 -53 50 -69 64 -17 15 -38 36
-48 48 -14 18 -21 20 -37 11 -26 -14 -82 -90 -115 -157 -19 -40 -31 -53 -48
-54 -12 0 -29 -2 -37 -4 -8 -1 -35 -6 -60 -10 -25 -4 -90 -15 -145 -25 -55
-11 -127 -24 -160 -30 -224 -41 -342 -71 -455 -115 -155 -59 -299 -141 -404
-229 l-50 -41 50 -7 c53 -7 452 -3 494 6 14 2 48 7 75 11 183 23 335 76 460
161 51 35 157 94 168 94 2 0 3 -38 3 -85 l-1 -85 -32 -1 c-18 -1 -36 -2 -40
-3 -5 -1 -24 -5 -44 -9 -43 -9 -77 -62 -85 -134 l-5 -48 116 -69 c63 -38 126
-74 138 -81 12 -6 65 -34 117 -62 52 -27 132 -70 178 -93 70 -37 82 -47 83
-69 0 -14 1 -98 2 -187 2 -181 6 -194 66 -194 56 0 62 18 62 186 -1 79 2 144
5 144 14 0 464 -288 464 -297 0 -7 -88 -126 -421 -573 l-297 -397 -555 1
c-421 1 -558 4 -569 14 -8 6 -37 15 -64 19 -27 3 -65 14 -84 24 -19 10 -50 20
-68 22 -23 4 -49 22 -91 66 -32 34 -63 61 -69 61 -16 0 -34 56 -37 112 -2 39
-8 56 -24 69 -14 12 -21 29 -21 53 0 40 -17 55 -97 86 -27 10 -67 37 -90 59
-25 25 -47 39 -56 36 -16 -7 -32 24 -122 235 -66 155 -175 385 -209 438 -40
64 -198 307 -203 312 -8 8 -52 -52 -78 -105 -26 -53 -41 -114 -39 -155 3 -56
131 -325 289 -605 45 -79 62 -118 60 -140 -2 -16 -3 -53 -4 -82 -1 -46 -4 -52
-23 -55 -52 -7 -95 -201 -64 -287 23 -62 21 -111 -2 -111 -37 0 -67 -53 -77
-137 -4 -27 -8 -56 -11 -65 -3 -9 -8 -27 -11 -40 -4 -13 -7 -80 -9 -150 -1
-124 -1 -128 20 -128 19 -1 305 1 411 2 63 1 75 -1 75 -13 0 -15 75 -140 102
-169 13 -14 57 -63 98 -110 163 -184 202 -220 244 -220 26 0 66 53 83 110 20
69 13 211 -17 324 -11 44 -20 82 -20 85 0 8 160 9 161 2 1 -3 3 -86 4 -183 2
-124 6 -182 15 -193 18 -22 96 -20 105 3 5 9 9 97 10 195 1 97 4 179 6 182 2
2 190 7 416 10 l412 7 -4 -29 c-2 -15 -6 -142 -9 -282 -3 -139 -9 -258 -14
-265 -131 -171 -242 -326 -242 -339 0 -19 46 -57 69 -57 74 0 190 -59 281
-141 19 -17 49 -42 65 -54 29 -22 362 -136 511 -176 71 -18 72 -18 130 1 83
29 152 27 269 -9 55 -16 108 -33 117 -36 21 -8 22 -6 246 385 96 168 192 335
213 372 l39 67 43 -19 c23 -11 52 -20 65 -20 21 0 100 34 112 49 3 3 17 17 32
30 l27 23 78 -56 c43 -31 87 -62 98 -70 11 -8 83 -60 160 -116 77 -56 147
-106 155 -113 8 -7 65 -48 126 -92 l111 -80 -124 -67 c-164 -89 -251 -147
-345 -226 -122 -102 -195 -209 -200 -294 -3 -42 -2 -43 27 -42 51 2 157 15
240 29 17 3 46 8 65 11 36 6 160 30 195 38 126 28 200 52 291 96 46 23 127 65
179 95 l94 53 83 -58 c46 -33 88 -63 93 -67 16 -13 509 -369 520 -376 6 -3 38
17 70 45 58 49 166 142 189 163 6 6 58 51 116 100 58 50 111 95 118 102 10 10
6 17 -22 35 l-35 23 2 91 c2 112 -6 125 -105 155 l-68 20 45 47 c72 74 105
160 91 236 -4 21 -25 54 -51 84 -25 28 -45 52 -45 55 0 2 14 7 31 11 58 11
296 113 577 247 57 27 105 49 107 49 5 0 252 118 365 174 204 102 290 205 235
283 -15 22 -25 23 -100 6 -16 -4 -34 -8 -40 -9 -78 -16 -280 -99 -490 -204
-229 -113 -552 -282 -595 -310 -8 -6 -22 -13 -30 -17 -8 -4 -42 -22 -75 -41
-56 -32 -60 -32 -72 -15 -29 40 -78 84 -100 89 -59 15 -134 -26 -182 -100 -21
-34 -32 -41 -61 -44 -80 -6 -119 -24 -168 -76 -26 -28 -52 -58 -58 -66 -5 -9
-42 -26 -81 -39 l-73 -23 -47 30 c-164 103 -794 505 -870 554 -64 42 -93 67
-93 80 0 35 -28 85 -68 123 -70 64 -90 133 -68 227 19 76 137 364 155 378 4 3
17 22 29 42 23 37 102 97 131 99 9 1 43 2 76 3 70 1 131 28 190 81 l39 36 305
-6 c168 -3 366 -7 439 -9 72 -1 135 -6 138 -9 4 -4 8 -74 8 -157 1 -82 6 -154
11 -159 19 -18 83 -22 99 -5 17 17 18 26 18 207 l0 119 287 -7 c157 -3 375 -8
484 -10 l197 -5 -5 63 c-4 34 -9 70 -12 81 -7 25 -5 24 198 -139 95 -78 212
-170 259 -205 47 -36 87 -67 90 -70 3 -3 22 -17 43 -33 20 -15 53 -39 72 -53
l35 -26 -6 48 c-6 58 -6 58 -35 154 -36 116 -122 279 -195 370 -122 150 -419
444 -516 510 -4 4 -10 26 -13 50 -7 52 -15 63 -60 84 -31 15 -33 18 -28 57 7
49 -12 89 -42 89 -11 0 -42 -13 -68 -30 -26 -16 -51 -30 -55 -30 -4 0 -24 33
-44 73 -31 60 -136 214 -172 253 -6 6 -49 53 -96 104 -47 50 -128 128 -180
173 -52 45 -97 83 -100 87 -27 29 -142 121 -147 117 -9 -10 26 -122 64 -205
84 -182 291 -424 498 -580 91 -70 97 -76 74 -82 -43 -12 -86 -38 -112 -69 -25
-31 -33 -59 -42 -165 -4 -46 -10 -63 -27 -75 -43 -29 -128 -101 -189 -158 -33
-32 -70 -62 -82 -66 -28 -11 -199 7 -205 21 -13 35 -48 75 -79 90 -21 11 -92
33 -158 50 -66 17 -212 56 -325 87 -208 57 -453 124 -458 125 -7 1 36 60 75
102 23 26 53 67 65 92 l22 46 -33 34 c-31 32 -33 38 -27 79 7 48 -8 76 -42 78
-9 1 -30 3 -47 4 -16 2 -60 6 -96 8 -92 7 -105 16 -112 76 -9 73 -41 118 -92
124 -67 10 -107 -9 -144 -64 -17 -27 -39 -49 -48 -49 -9 0 -37 13 -63 30 -43
27 -80 36 -137 32 -25 -2 -103 -76 -103 -97 0 -22 -5 -22 -356 49 l-112 22
-18 -36 c-61 -114 -160 -290 -185 -327 l-30 -43 -117 62 c-64 34 -129 69 -144
77 -15 9 -49 49 -74 89 -49 76 -106 121 -202 159 l-44 18 6 55 6 55 -82 47
-83 47 0 120 c0 142 -12 169 -86 187 l-44 11 40 12 c22 6 110 29 195 52 831
218 863 228 928 289 40 38 23 49 -43 29z"/>
</g>
</svg>
