<?xml version="1.0" encoding="UTF-8" standalone="no"?>
<svg xmlns:rdf="http://www.w3.org/1999/02/22-rdf-syntax-ns#" xmlns="http://www.w3.org/2000/svg" height="32" width="32" version="1.1" xmlns:cc="http://creativecommons.org/ns#" xmlns:dc="http://purl.org/dc/elements/1.1/" viewBox="0 0 32 32.000001">
	<g transform="translate(0 -1.02e3)">
		<path opacity=".990" d="m25.5 1.04e3c0 5.52-4.48 10-10 10s-7.48-5.14-10-10c-2.54-4.9 4.59-8.88 10-10 5.52-1.14 10 4.48 10 10z" stroke="#000" stroke-width="0.8" fill="#7a1b00"/>
		<path opacity=".990" d="m20.4 1.04e3c-0.647 0.227-5.44 0.854-9.85 3.7-3.02 1.95-3.59-0.845-2.94-3.07 0.925-3.18 4.65-6.35 8.24-6.35s7.68 4.63 4.55 5.72z" fill="#c50f00"/>
		<g>
			<path opacity=".990" d="m25.5 1.04e3c0 3-3.34 1.35-6.42 2.58-5 2-4.74-1.41-4.74-2.58s2.48-3 5.79-3 5.37 1.34 5.37 3z" stroke="#650000" stroke-width="0.4" fill="#52000d"/>
			<path opacity=".990" d="m18.2 1.04e3c0.000029 0.835-0.683 1.51-1.53 1.51-0.843 0-1.53-0.677-1.53-1.51 0.00003-0.835 0.808-1.91 1.53-1.51 2.41 1.35 1.53 0.677 1.53 1.51z" stroke="#bb3200" stroke-width=".552" fill="#fc0"/>
			<path opacity=".990" d="m25.2 1.04e3c-0.000025 0.519-0.6 0.94-1.34 0.94s-1.34-0.421-1.34-0.94c0.000025-0.519 1.82-0.94 1.95-0.94s0.731 0.421 0.731 0.94z" stroke="#bb3200" stroke-width=".497" fill="#f60"/>
		</g>
		<g fill-rule="evenodd">
			<path d="m8.28 1.05e3h-2.19-1.09l2.23-1.77 4.77 0.767 1-1c-0.969-0.488-2.39 0.151-2.91-1.46"/>
			<path d="m16 1.05e3 -1.98-1.09-3.02 2.84 1.98-0.651z"/>
			<path d="m18.6 1.05e3 3 0.396 3.86 1.63-1.19-1.28-3.12-2.21h-3.2"/>
			<path d="m21.1 1.05e3 3.12-1.44 4.74 2.91-0.721-1.16-3.35-2.19-3.7 0.743z"/>
			<path d="m15.8 1.03e3 -1.44-8.06 0.436 9.06z"/>
			<path d="m8.67 1.03e3c-2.39-2.62-6.13-2.95-6.13-2.95s6.31 7.38 6.46 6.46c0.0969-0.57 2.06-0.89-0.331-3.51z"/>
			<path d="m18 1.03e3 0.148-5.97 1.85 5.97z"/>
			<path d="m9.29 1.03e3 -4.53-4.42s3.83 6.83 5.32 7.56c1.49 0.733 1.93-2.02 1.93-2.02"/>
			<path d="m7 1.04e3h-3l4 1-1-1"/>
			<path d="m11 1.04e3 -1-6 3 3v3z"/>
			<path d="m6.04 1.04e3 -3.44-0.861 2.88 2.63z"/>
		</g>
		<path d="m14.8 1.05e3 3.5-2.4v1.6l2.33-1.6v1.6l2.33-1.6v1.6l1.17-0.802-2.33 2.4-2.33-0.802z" fill-rule="evenodd" stroke="#400d0d" stroke-width=".393" fill="#ffbd12"/>
	</g>
</svg>
